# xmcd
#
# Track frame offsets:
#	150
#	21352
#	40862
#	58950
#	75087
#	97752
#	118460
#	135937
#	155737
#	176415
#	194162
#	215760
#	235257
#	255900
#
# Disc length: 3635 seconds
#
# Revision: 16
# Processed by: cddbd v1.5.2PL0 Copyright (c) Steve Scherf et al.
# Submitted via: EasyCDDAExtractor 12.0.1.1
#
DISCID=bd0e310e
DTITLE=Mariah Carey - Greatest Hits - CD 2
DYEAR=2001
DGENRE=R&B/Pop
TTITLE0=One Sweet Day (Mariah Carey and Boyz II Men)
TTITLE1=Always Be My Baby
TTITLE2=Forever
TTITLE3=Underneath The Stars
TTITLE4=Honey
TTITLE5=Butterfly
TTITLE6=My All
TTITLE7=Sweetheart (Mariah Featuring JD)
TTITLE8=When You Believe (From The Prince Of Egypt) (Mariah Carey and Whitney Ho
TTITLE8=uston)
TTITLE9=I Still Believe
TTITLE10=Heartbreaker (Featuring Jay-Z)
TTITLE11=Thank God I Found You (Featuring Joe and 98 Degrees)
TTITLE12=Can't Take That Away (Mariah's Theme)
TTITLE13=All I Want For Christmas Is You (So So Def Remix) (Featuring Jermaine
TTITLE13=Dupri and Lil Bow Wow) (Bonus Track)
EXTD=YEAR: 2001
EXTT0=
EXTT1=
EXTT2=
EXTT3=
EXTT4=
EXTT5=
EXTT6=
EXTT7=
EXTT8=
EXTT9=
EXTT10=
EXTT11=
EXTT12=
EXTT13=
PLAYORDER=
